<?xml version="1.0" standalone="no"?><!DOCTYPE svg PUBLIC "-//W3C//DTD SVG 1.1//EN" "http://www.w3.org/Graphics/SVG/1.1/DTD/svg11.dtd"><svg t="1688469908698" class="icon" viewBox="0 0 1024 1024" version="1.1" xmlns="http://www.w3.org/2000/svg" p-id="4428" width="200" height="200" xmlns:xlink="http://www.w3.org/1999/xlink"><path d="M281.531733 436.4288a10.581333 10.581333 0 0 0-5.12-7.168c-3.072-1.570133-6.144-1.570133-8.738133 0.477867a2657.826133 2657.826133 0 0 0-178.653867 116.258133c-50.722133 38.365867-84.514133 61.44-88.064 83.968 0 1.570133 0.477867 4.642133 2.048 7.168 4.573867 6.690133 10.717867 6.690133 15.36 7.168 40.96-1.024 177.152-65.058133 295.936-130.594133 2.594133-1.501867 4.642133-4.096 4.642134-7.168 0.477867-3.072-1.024-6.144-3.072-8.192a96.733867 96.733867 0 0 1-34.338134-61.917867z m99.874134 55.296a69.700267 69.700267 0 0 0 0-139.264 69.700267 69.700267 0 0 0 0 139.264z m-44.032-164.386133c2.525867 2.048 5.597867 2.048 8.669866 1.024 11.264-4.096 23.074133-6.621867 35.362134-6.621867s24.029867 2.525867 35.293866 6.621867c1.024 0.546133 2.048 0.546133 3.618134 0.546133 2.048 0 3.549867-0.546133 5.12-1.570133a9.0112 9.0112 0 0 0 4.096-7.645867 2105.685333 2105.685333 0 0 0-12.834134-211.968 602.112 602.112 0 0 0-12.288-72.704c-6.144-17.408-5.597867-30.72-23.005866-34.338133-17.408 3.618133-17.408 16.930133-23.074134 34.338133-13.312 53.725867-23.005867 171.485867-25.053866 284.672 0 2.525867 1.501867 5.597867 4.096 7.645867z m337.373866 225.28c-51.2-37.888-117.76-81.92-179.677866-119.261867a10.376533 10.376533 0 0 0-8.738134-0.546133c-2.525867 1.024-4.573867 3.618133-5.12 7.168-4.096 24.576-17.408 46.08-35.84 60.962133a10.24 10.24 0 0 0-3.549866 8.192c0 3.072 2.048 6.144 4.573866 7.645867 119.808 66.082133 261.12 136.260267 302.08 137.216 4.642133 0 10.24-0.477867 14.882134-6.621867a13.994667 13.994667 0 0 0 2.048-7.168c-4.096-23.005867-39.458133-47.581867-90.658134-87.586133z m-283.648-14.336h-16.384a33.5872 33.5872 0 0 0-32.768 33.792l-16.384 413.218133c0 18.432 14.882133 33.792 32.768 33.792h49.152c17.954133 0 32.768-15.36 32.768-33.792L423.936 572.074667a33.5872 33.5872 0 0 0-32.768-33.792z" fill="#59b56e" p-id="4429"></path><path d="M675.293867 635.562667c0-2.048-1.570133-3.549867-3.072-4.573867-2.048-1.024-4.096-1.024-5.666134 0-39.389867 23.552-80.896 50.722133-112.64 73.250133-31.744 24.029867-53.248 38.912-55.773866 53.248 0 1.024 0 3.072 1.024 4.573867 2.525867 4.096 6.621867 4.096 9.693866 4.642133 25.6-0.546133 111.616-40.96 186.914134-82.466133a7.509333 7.509333 0 0 0 3.072-4.573867c0-2.048-0.546133-4.096-2.048-5.12a63.0784 63.0784 0 0 1-21.504-38.912z m63.488 34.816a44.032 44.032 0 1 0 0-88.064 44.032 44.032 0 0 0 0 88.064z m-28.194134-103.901867a5.461333 5.461333 0 0 0 5.666134 0.477867 65.194667 65.194667 0 0 1 45.056 0c0.477867 0.546133 1.501867 0.546133 2.048 0.546133a9.489067 9.489067 0 0 0 3.549866-1.024 6.280533 6.280533 0 0 0 2.594134-5.12 1274.538667 1274.538667 0 0 0-8.192-134.144 328.772267 328.772267 0 0 0-7.714134-46.08c-3.549867-10.786133-3.549867-19.456-14.813866-21.504-10.786133 2.525867-10.786133 10.717867-14.882134 21.504-8.669867 33.792-14.336 108.544-15.837866 179.677867 0 2.594133 1.024 4.642133 2.525866 5.666133z m212.992 142.336a1412.437333 1412.437333 0 0 0-113.664-75.229867c-1.501867-1.024-3.549867-1.024-5.597866-0.546133-1.570133 1.024-3.072 2.594133-3.072 4.642133a61.8496 61.8496 0 0 1-22.528 38.365867 4.846933 4.846933 0 0 0-2.048 5.12c0 2.048 1.024 3.618133 3.072 4.642133 75.776 41.437867 164.864 86.016 190.464 86.493867 3.072 0 6.621867-0.477867 9.216-4.096 1.024-1.501867 1.024-3.072 1.024-4.573867-2.048-13.858133-24.098133-29.696-56.866134-54.818133z m-179.2-8.669867h-10.24a21.162667 21.162667 0 0 0-20.48 21.504l-10.24 260.573867a21.162667 21.162667 0 0 0 20.48 21.504h31.266134a21.162667 21.162667 0 0 0 20.48-21.504l-10.24-260.573867a21.162667 21.162667 0 0 0-21.026134-21.504z" fill="#59b56e" p-id="4430"></path></svg>